<svg xmlns="http://www.w3.org/2000/svg" version="1.0" width="300.000000pt" height="93.000000pt" viewBox="0 0 300.000000 93.000000" preserveAspectRatio="xMidYMid meet">
<metadata>
Created by potrace 1.10, written by Peter Selinger 2001-2011
</metadata>
<g transform="translate(0.000000,93.000000) scale(0.100000,-0.100000)" fill="#000000" stroke="none">
<path d="M2950 465 c0 -407 2 -465 15 -465 13 0 15 58 15 465 0 407 -2 465 -15 465 -13 0 -15 -58 -15 -465z"/>
<path d="M452 706 c-23 -12 -320 -302 -366 -357 -34 -40 -33 -58 5 -97 49 -50 67 -45 234 74 83 58 168 114 190 124 44 19 125 100 125 125 0 76 -127 164 -188 131z m116 -69 c23 -23 42 -48 42 -57 0 -20 -80 -98 -101 -97 -8 0 -93 -55 -188 -122 l-173 -123 -34 33 -34 33 182 184 c101 101 192 187 203 192 30 13 56 2 103 -43z"/>
<path d="M440 634 l-31 -27 47 -48 c27 -27 53 -49 59 -49 6 0 26 16 45 35 l34 35 -39 40 c-46 47 -72 50 -115 14z m95 -24 l29 -30 -24 -25 -24 -25 -38 37 c-35 34 -37 38 -21 55 23 26 45 22 78 -12z"/>
<path d="M476 611 c-3 -4 5 -18 18 -30 29 -27 47 -10 20 20 -19 21 -30 24 -38 10z"/>
<path d="M252 447 c-140 -140 -142 -143 -123 -161 19 -17 24 -14 185 99 91 64 166 118 166 119 0 1 -19 21 -43 44 l-43 42 -142 -143z m165 66 c4 -12 -148 -125 -156 -117 -3 3 24 34 60 70 60 61 87 74 96 47z"/>
<path d="M765 523 c-94 -24 -127 -152 -55 -216 29 -26 34 -27 120 -24 51 2 95 8 102 15 9 9 16 8 29 -4 14 -12 32 -15 86 -10 89 6 79 6 152 1 69 -5 101 9 101 45 0 17 19 30 42 30 6 0 8 -10 4 -24 -11 -44 19 -57 128 -54 78 1 99 5 113 20 15 17 17 17 49 -3 28 -17 36 -18 53 -7 12 7 22 24 23 38 1 14 2 33 2 42 1 10 7 23 15 30 10 11 12 3 10 -41 -2 -43 1 -56 16 -67 25 -18 59 -18 75 1 16 19 34 19 50 0 10 -12 35 -15 116 -13 57 1 108 4 115 8 6 4 24 3 40 -3 25 -10 32 -8 50 10 20 19 20 22 5 51 -12 24 -13 37 -5 61 14 40 5 77 -24 95 -24 16 -19 16 -318 16 -193 1 -206 0 -223 -19 -18 -20 -19 -20 -45 -2 -22 15 -50 18 -196 19 -110 1 -178 -3 -193 -10 -17 -9 -25 -9 -34 0 -16 16 -121 15 -136 0 -7 -7 -12 -25 -12 -41 l0 -30 -22 33 c-36 52 -53 58 -83 30 l-25 -24 -20 22 c-12 12 -29 22 -40 22 -10 0 -24 2 -32 4 -7 2 -22 1 -33 -1z m93 -62 c4 -34 -13 -42 -23 -11 -3 11 -18 23 -32 26 -54 14 -93 -72 -57 -124 16 -23 77 -32 89 -12 8 12 25 13 25 1 0 -5 -16 -16 -35 -25 -30 -15 -38 -15 -69 -2 -40 17 -56 42 -56 88 0 64 43 99 115 93 37 -2 40 -5 43 -34z m126 -41 c15 -44 32 -83 37 -86 19 -11 8 -24 -20 -24 -26 0 -30 3 -28 28 2 24 -1 27 -28 24 -30 -3 -53 -24 -35 -30 22 -8 8 -22 -20 -22 -29 0 -30 1 -16 23 8 12 27 55 42 95 14 39 29 72 33 72 3 0 19 -36 35 -80z m180 54 c22 -22 20 -50 -5 -68 -22 -15 -22 -15 -4 -43 10 -15 26 -33 34 -40 14 -11 13 -12 -9 -13 -19 0 -32 10 -50 40 -30 48 -40 50 -40 10 0 -16 5 -30 10 -30 6 0 10 -4 10 -10 0 -5 -17 -10 -37 -10 -29 0 -34 3 -25 12 17 17 16 155 0 161 -7 3 13 6 44 6 39 1 61 -4 72 -15z m168 -1 c10 -9 18 -24 18 -35 0 -26 -36 -58 -65 -58 -20 0 -25 -5 -25 -25 0 -14 5 -25 10 -25 6 0 10 -4 10 -10 0 -5 -16 -10 -35 -10 -19 0 -35 5 -35 10 0 6 5 10 10 10 6 0 10 30 10 70 0 40 -4 70 -10 70 -5 0 -10 5 -10 10 0 17 101 12 122 -7z m168 -8 c0 -14 -4 -25 -10 -25 -5 0 -10 7 -10 15 0 16 -43 31 -59 20 -6 -3 -11 -19 -11 -36 0 -22 5 -29 20 -29 11 0 20 7 20 15 0 8 5 15 10 15 6 0 10 -17 10 -37 -1 -34 -2 -36 -14 -20 -23 30 -46 21 -46 -18 0 -34 2 -35 36 -35 27 0 37 5 41 20 8 28 21 15 15 -15 -4 -24 -7 -25 -75 -25 -55 0 -68 3 -59 12 7 7 12 40 12 78 0 38 -5 71 -12 78 -9 9 4 12 60 12 70 0 72 -1 72 -25z m105 -31 c58 -81 63 -83 57 -22 -2 29 -9 59 -14 66 -8 9 -3 12 22 12 25 0 30 -3 22 -13 -6 -7 -12 -51 -14 -97 l-3 -85 -55 73 -55 73 -3 -53 c-2 -31 1 -54 7 -56 23 -8 9 -22 -21 -22 -25 0 -29 3 -20 12 7 7 12 40 12 78 0 38 -5 71 -12 78 -9 9 -7 12 13 12 18 0 34 -15 64 -56z m265 26 c0 -16 -4 -30 -10 -30 -5 0 -10 9 -10 20 0 11 -2 20 -4 20 -2 0 -11 3 -20 6 -14 5 -16 -5 -16 -70 0 -44 4 -76 10 -76 6 0 10 -4 10 -10 0 -5 -16 -10 -35 -10 -34 0 -46 12 -25 25 12 8 13 132 1 139 -16 10 -41 -5 -41 -25 0 -10 -4 -19 -10 -19 -5 0 -10 14 -10 30 l0 30 80 0 80 0 0 -30z m150 5 c0 -14 -4 -25 -10 -25 -5 0 -10 7 -10 15 0 16 -43 31 -59 20 -6 -3 -11 -19 -11 -36 0 -22 5 -29 20 -29 11 0 20 7 20 15 0 8 5 15 10 15 6 0 10 -16 10 -35 0 -36 -13 -47 -24 -20 -11 30 -36 17 -36 -20 0 -33 2 -35 35 -35 28 0 38 5 45 23 8 20 9 19 9 -10 l1 -33 -72 0 c-56 0 -69 3 -60 12 17 17 16 155 0 161 -7 3 20 6 60 6 70 1 72 0 72 -24z m148 13 c18 -18 14 -55 -8 -76 l-21 -19 31 -33 c36 -38 37 -42 8 -38 -12 2 -33 19 -46 38 -30 46 -42 49 -42 11 0 -17 5 -31 10 -31 6 0 10 -4 10 -10 0 -5 -17 -10 -37 -10 -29 0 -34 3 -25 12 17 17 16 155 0 161 -7 3 14 6 48 6 34 1 65 -4 72 -11z m-1350 -54 c12 -8 31 -13 41 -9 16 5 18 2 14 -14 -6 -22 -64 -46 -88 -37 -23 8 -19 76 4 76 4 0 17 -7 29 -16z m1050 -56 c-2 -18 -7 -33 -13 -33 -5 0 -11 15 -13 33 -3 24 1 32 13 32 12 0 16 -8 13 -32z"/>
<path d="M932 421 c-14 -39 -12 -44 16 -39 17 3 18 6 7 38 l-12 34 -11 -33z"/>
<path d="M1097 473 c-4 -3 -7 -21 -7 -40 0 -26 4 -33 20 -33 12 0 25 10 32 26 11 22 10 28 -7 40 -21 16 -29 17 -38 7z"/>
<path d="M1260 435 c0 -49 5 -53 38 -29 26 18 28 37 6 58 -29 30 -44 20 -44 -29z"/>
<path d="M2097 474 c-4 -4 -7 -23 -7 -41 0 -29 3 -34 21 -31 30 4 47 33 33 56 -12 19 -36 27 -47 16z"/>
<path d="M2365 524 c-5 -1 -22 -5 -37 -8 -57 -13 -95 -86 -77 -150 20 -73 101 -106 169 -71 27 14 33 14 60 0 36 -19 97 -19 130 0 22 12 27 11 43 -3 20 -18 42 -10 61 22 9 14 6 22 -16 41 -16 13 -30 39 -34 61 -4 24 -20 52 -41 72 -31 32 -36 34 -85 28 -79 -9 -90 -9 -128 1 -19 5 -39 9 -45 7z m65 -61 c0 -38 -11 -43 -25 -10 -24 55 -95 17 -95 -51 0 -65 41 -86 115 -57 19 7 19 7 -1 -15 -15 -15 -33 -22 -59 -22 -67 0 -107 64 -80 128 18 44 50 63 101 61 42 -2 44 -3 44 -34z m168 14 c8 -6 21 -27 29 -44 11 -28 11 -38 0 -65 -19 -45 -42 -62 -83 -62 -50 0 -89 41 -89 95 0 34 6 46 34 71 27 24 39 29 64 24 16 -3 37 -12 45 -19z m-198 -59 c24 -26 25 -32 5 -48 -32 -27 -82 23 -55 55 17 20 26 19 50 -7z m286 -104 c-5 -13 -10 -14 -18 -6 -6 6 -8 18 -4 28 5 13 10 14 18 6 6 -6 8 -18 4 -28z"/>
<path d="M2507 462 c-24 -27 -22 -97 3 -122 25 -25 45 -25 70 0 13 13 20 33 20 60 0 67 -56 103 -93 62z m53 -42 c15 -28 -5 -67 -26 -49 -8 6 -14 22 -14 34 0 20 5 26 27 34 1 1 7 -8 13 -19z"/>
</g>
</svg>